<svg width="500" height="500" viewBox="0 0 500 500" fill="none" xmlns="http://www.w3.org/2000/svg">
<rect width="500" height="500" fill="#1E1E1E"/>
<rect width="500" height="500" fill="#030202"/>
<path d="M194.175 329V324.275L198.675 322.925C201.825 321.875 203.85 320.525 204.75 318.875C205.65 317.075 206.1 314.6 206.1 311.45V197.6C206.1 194.6 205.65 192.275 204.75 190.625C203.85 188.825 201.9 187.4 198.9 186.35L194.175 185V180.275H249.975V185L245.7 186.35C242.85 187.4 240.9 188.825 239.85 190.625C238.95 192.425 238.5 194.9 238.5 198.05V322.25H271.575C276.675 322.25 280.5 320.975 283.05 318.425C285.6 315.875 288 312.2 290.25 307.4L298.575 288.725H304.875L302.625 329H194.175Z" fill="white"/>
</svg>
